<svg version="1.2" xmlns="http://www.w3.org/2000/svg" viewBox="0 0 134 138" width="134" height="138"><style>.a{fill:#0d0e10}.b{fill:#ccc7bd}</style><path fill-rule="evenodd" class="a" d="m68.8 0c2.6 0 2.9 0.1 3.9 0.6 0.7 0.4 1.2 1 1.6 1.6 0.3 0.8 0.4 1.5 0.3 4.9l-11.8 0.1-0.1-1c0-0.6 0-1.6 0-2.2q0.1-1.1 0.7-2.1c0.4-0.5 1.1-1.2 1.6-1.4 0.7-0.4 1.4-0.5 3.8-0.5zm8.5 7.7l3.9 0.1c2.9 0.1 4.4 0.3 5.8 0.7 1 0.3 2.5 0.9 3.4 1.3 0.8 0.5 2.3 1.6 3.4 2.7 1.1 1.1 2.2 2.5 2.6 3.4 0.5 0.8 1.1 2.6 2.1 6.5v35.1h1.1c0.5 0 1.6 0 2.2 0.1 0.8 0 1.3 0.2 1.4 0.4q0.3 0.4 0 0.7c-0.2 0.3-0.9 0.3-4.6 0.2l-0.1 5.1c-0.1 3.7-0.3 5.5-0.6 6.4-0.2 0.7-0.7 1.8-1.2 2.5-0.4 0.7-1 1.7-1.3 2.3-0.2 0.7-1.2 1.9-2.3 3-1 1-2.4 2.2-3.2 2.6-0.7 0.5-1.8 1.1-2.5 1.3-1.2 0.5-2.3 0.5-17.6 0.6-13.4 0.1-16.7 0-18.2-0.3-0.9-0.2-2.5-0.7-3.4-1.2-1-0.4-2.5-1.4-3.4-2.1-0.8-0.8-2-2.1-2.6-2.9-0.6-0.9-1.3-2.1-1.5-2.7-0.3-0.6-0.7-1.9-1-2.9-0.4-1.3-0.5-3-0.8-11.4l-1.2-0.1c-0.7-0.1-1.4-0.4-1.5-0.5-0.3-0.3-0.2-0.4 0-0.7 0.2-0.1 0.9-0.3 2.8-0.5v-17.7c0-16.9 0-17.7 0.5-19.7 0.3-1.2 1-3 1.5-4 0.6-1.1 1.6-2.5 2.4-3.4 0.8-0.8 2.2-1.9 3.1-2.4 0.9-0.5 2.5-1.2 3.6-1.6 1.7-0.5 2.4-0.6 5.5-0.6 3.6 0 3.7 0 3.8 0.6 0 0.3 0.1 0.7 0.1 0.9 0 0.3-0.7 0.4-3.8 0.5-3 0.2-4.2 0.3-5.4 0.8-0.9 0.3-2.5 1.1-3.5 1.8-1.1 0.7-2.3 1.7-2.7 2.3-0.4 0.5-1.1 1.5-1.5 2.2-0.4 0.8-0.7 2.1-1 3.6-0.3 2-0.3 5.7-0.4 36.2l1.6 0.2c0.9 0.1 6.1 0.2 21.7 0.1l0.3 0.6c0.1 0.3 0.2 0.8 0.1 1-0.1 0.4-0.9 0.4-23.6 0.4l-0.1 4.5c0 3.7 0.1 4.8 0.6 6.4 0.2 1.1 0.8 2.6 1.1 3.3 0.4 0.6 1.5 2 2.4 3 0.9 0.9 2.2 2.1 3 2.5 0.7 0.4 2 0.9 2.8 1.2 1.2 0.3 2.7 0.5 11.7 0.8v-4.7c0-3-0.2-5.1-0.4-5.8-0.2-1.1-0.2-1.2 0.2-1.7 0.3-0.3 1-1.3 1.5-2.1 0.4-0.8 1.1-2 1.5-2.7 0.3-0.7 1-1.9 1.5-2.7 0.5-0.7 1.1-1.4 1.3-1.5 0.2-0.1 0.5-0.2 0.7-0.1 0.1 0 1.1 1.5 2.1 3.2 1 1.7 2.3 3.9 2.9 4.8 1.1 1.7 1.2 1.8 0.9 2.5-0.3 0.6-0.4 2.1-0.4 10.5l5.2-0.1c3.8 0 5.4-0.1 6.5-0.4 0.7-0.2 1.9-0.8 2.7-1.3 0.8-0.5 1.9-1.3 2.6-1.9 1-0.8 1.6-1.7 2.5-3.4 0.7-1.3 1.4-2.9 1.6-3.6 0.2-0.8 0.3-2.9 0.3-10.7l-23.4-0.1-0.1-1.9 23.6-0.1v-17.7c0-13.5-0.1-18-0.3-18.9-0.2-0.6-0.7-1.9-1.2-2.9-0.5-1.1-1.3-2.3-2.3-3.4-1-1.1-2.1-1.9-3.4-2.6-1.4-0.7-2.6-1.1-3.6-1.3-0.9-0.1-2.5-0.2-3.4-0.1-1 0.1-2.4 0-4.6-0.2v-1.2zm-2.8 1.6v3.5h-12l-0.1-1.6c0-0.8 0.1-1.6 0.2-1.7 0.1-0.1 2.8-0.2 11.9-0.2zm-6.6 5.3c2.9 0 5.6 0 6.8 0.2v14.5c0 10.2 0 14.9 0.2 16.1 0.3 1.7 0.3 1.8-0.2 2.1-0.3 0.2-0.8 1-1.2 1.8-0.4 0.7-1 1.7-1.4 2-0.4 0.4-0.8 1-0.9 1.5-0.2 0.5-0.4 1-0.6 1.1-0.1 0.1-0.5 0.8-0.9 1.5-0.4 0.8-0.8 1.3-1.1 1.4-0.4 0-0.9-0.7-2.8-4-1.2-2.3-2.6-4.5-3-5-0.8-0.9-0.8-1-0.5-1.8 0.2-0.6 0.3-4.5 0.3-15.9 0-8.4 0.1-15.2 0.1-15.3 0-0.1 2.3-0.1 5.2-0.2zm17.9 1.2c0.2 0 0.7 0.1 1.2 0.3 0.5 0.1 1.3 0.5 1.7 0.9 0.5 0.4 1 1 1.2 1.4 0.2 0.5 0.4 1.4 0.4 2.2-0.1 0.9-0.3 1.7-0.6 2.4-0.4 0.6-1 1.3-1.4 1.6-0.4 0.2-1.3 0.5-2 0.7-0.7 0.1-1.6 0.1-2.2 0-0.6-0.1-1.4-0.6-1.9-1-0.4-0.5-1-1.2-1.2-1.7-0.1-0.4-0.3-1.2-0.3-1.8 0-0.5 0.2-1.4 0.5-1.9 0.2-0.5 0.9-1.3 1.4-1.8 0.5-0.4 1.1-0.8 1.4-0.9 0.3-0.1 0.8-0.2 1.1-0.2 0.3-0.1 0.6-0.1 0.7-0.2zm-28.4 1.3c0.3 0 0.7 0.2 0.8 0.5 0.3 0.5 0 0.9-3.7 4.4-2.1 2.1-4.3 4.3-4.8 5-0.5 0.7-1 1.3-1.2 1.4-0.1 0.1-0.7-0.2-1.9-1.3l5.1-5c3.6-3.5 5.3-5 5.7-5zm49.9 7.3l0.4 0.8c0.3 0.5 0.9 1.1 1.4 1.4 0.5 0.3 0.8 0.7 0.8 0.8-0.1 0.2-0.5 0.4-0.9 0.5-0.6 0.1-0.9 0.4-1.3 1.2-0.3 0.5-0.6 1-0.7 1-0.1 0-0.3-0.4-0.5-0.8-0.2-0.4-0.8-1-1.2-1.3-0.5-0.2-0.8-0.5-0.9-0.5 0 0 0.7-0.8 1.5-1.6zm-51.2 3.2c0.1 0 0.5 0.3 1.3 1.1l-4.5 4.6c-2.5 2.6-4.9 4.9-6 5.9l-1.3-1.3 5.2-5.1c2.8-2.9 5.2-5.2 5.3-5.2zm0.7 5.8c0.1 0 0.5 0.2 0.8 0.5 0.3 0.2 0.6 0.5 0.6 0.6 0 0.1-1.5 1.6-3.2 3.2-1.8 1.7-3.9 4-4.9 5.1-0.9 1.1-1.8 2.1-2 2.1-0.2 0-0.7-0.3-1.8-1.3l5.1-5.1c2.9-2.8 5.3-5.1 5.4-5.1zm31.6 0.7c0.1 0 0.3 0.1 0.4 0.3 0.1 0.1-0.4 0.8-1.1 1.6-0.6 0.8-2 2.3-3 3.4-1 1.2-2.4 2.6-4 4.6l-1.4-1.3 4.4-4.3c2.4-2.4 4.5-4.3 4.7-4.3zm2.3 5.5c0.3 0 0.6 0.3 0.8 0.6 0.4 0.5 0.3 0.6-2.7 3.5-1.6 1.7-3.7 3.6-4.5 4.3-0.8 0.7-1.7 1.7-2.1 2.4-0.4 0.6-1 1.4-1.4 1.8-0.6 0.6-0.6 0.6-1.4 0.2-0.4-0.2-0.7-0.5-0.7-0.7 0-0.1 1.2-1.4 2.7-2.9 1.5-1.4 4.1-4.1 5.8-5.9 1.7-1.8 3.3-3.3 3.5-3.3zm-34.3 1.5c0.2 0 0.7 0.3 1.5 1.1l-4.9 5c-2.7 2.8-5.1 5.1-5.2 5.1-0.1 0.1-0.5-0.2-1.5-1.2l4.9-5c2.7-2.8 5-5 5.2-5zm52.3 2.8c0.1 0 0.4 0.3 0.6 0.8 0.2 0.5 0.7 1.2 1.7 2.3l-0.6 0.5c-0.4 0.3-0.8 0.8-1.1 1.2-0.2 0.3-0.5 0.7-0.7 0.7-0.1 0-0.5-0.4-0.7-0.8-0.2-0.5-0.6-1-1-1.2-0.4-0.1-0.7-0.4-0.7-0.5 0-0.1 0.4-0.5 1-1 0.5-0.4 1.1-1.1 1.1-1.4 0.1-0.4 0.3-0.6 0.4-0.6zm-79.2 0.7c0.2 0 0.5 0.3 0.7 0.8 0.2 0.4 0.7 1 1 1.2 0.4 0.3 0.7 0.6 0.7 0.8 0 0.1-0.3 0.4-0.7 0.6-0.4 0.2-0.9 0.7-1.1 1.1-0.3 0.6-0.5 0.7-0.8 0.6-0.2-0.1-0.6-0.5-0.8-0.9q-0.3-0.7-1.1-0.8c-0.6-0.1-0.7-0.3-0.7-0.8 0-0.4 0.2-0.7 0.8-0.9 0.4-0.2 1-0.7 1.3-1 0.2-0.4 0.5-0.7 0.7-0.7zm26.9 3.8c0.1 0 0.6 0.2 1.5 1.1l-3.3 3.6-0.7-0.7c-0.4-0.4-0.7-0.7-0.7-0.8 0-0.1 0.6-0.8 1.4-1.7 0.8-0.8 1.6-1.5 1.8-1.5zm33 1.2c0.4 0 0.9 0.2 1.1 0.4 0.3 0.3 0.4 0.7 0.4 0.9 0 0.3-0.1 0.6-0.4 0.8-0.2 0.2-0.6 0.4-1 0.4-0.4 0-0.6-0.2-0.8-0.7-0.2-0.4-0.2-0.9-0.1-1.2 0.1-0.4 0.3-0.6 0.8-0.6zm-3.8 13.3c1.4 0.1 1.5 0.1 1.5 1.6h-1.8c-1.7 0-1.7 0-1.8-0.6-0.1-0.4 0.1-0.8 0.2-0.9 0.2-0.1 1-0.1 1.9-0.1zm-30.8 1.4c0.1 0.2 0.8 1.1 2.8 3.8l-1.1 1.1-1.5-1.5c-0.9-0.8-1.6-1.7-1.6-2 0-0.3 0.2-0.8 0.5-1.1 0.4-0.3 0.7-0.4 0.9-0.3zm25.2-0.2c0.8 0 1.6 0.1 1.8 0.1 0.2 0.1 0.4 0.4 0.4 0.7 0 0.3-0.1 0.7-0.3 0.9-0.2 0.2-0.9 0.3-1.6 0.3-0.9 0-1.5-0.1-1.7-0.4-0.2-0.2-0.4-0.5-0.4-0.6 0-0.1 0.1-0.4 0.1-0.6 0.1-0.3 0.6-0.4 1.7-0.4zm-31.8 0.5c0.2 0 0.5 0.3 0.8 0.7 0.3 0.4 2 2.3 3.9 4.3 2.4 2.5 3.5 3.9 3.8 4.6 0.2 0.6 0.4 1.2 0.6 1.3 0.1 0.2 0.2 0.4 0.1 0.5 0 0-0.4 0.2-0.8 0.4-0.8 0.4-0.8 0.4-1.4-0.5-0.3-0.5-1-1.3-1.4-1.8-0.5-0.5-1.4-1.6-2-2.4-0.7-0.9-2.1-2.5-5.2-5.9l0.7-0.6c0.4-0.3 0.8-0.6 0.9-0.6zm42.5 0.5c1.1 0 1.3 0.1 1.4 0.6 0.1 0.3 0 0.8-0.1 1.1-0.2 0.3-0.6 0.6-0.9 0.7-0.3 0.1-1 0.1-1.5 0.1-0.8-0.1-1.1-0.2-1.1-0.6-0.1-0.3 0-0.8 0-1.1 0.1-0.3 0.4-0.6 0.6-0.6 0.3-0.1 1-0.2 1.6-0.2zm-6.6 4.6c0.3 0.1 0.7 0.2 1 0.2 0.2 0.1 1.6 1.4 3 2.9 1.4 1.6 2.6 2.9 2.6 3.1 0 0.2-0.1 0.5-0.3 0.6-0.2 0.2-0.5 0.3-0.7 0.2-0.2 0-1.4-1.2-2.7-2.5-1.2-1.4-2.5-2.9-2.8-3.3-0.3-0.5-0.5-1-0.5-1.1 0-0.1 0.2-0.2 0.4-0.1zm-3.2 4.4c0.2 0 0.8 0.4 1.3 0.9 0.6 0.5 1 1.1 1 1.4 0 0.3-0.2 0.5-0.6 0.6q-0.5 0.1-1.5-0.5c-0.5-0.4-1-0.9-1-1.1-0.1-0.3 0-0.7 0.1-0.9 0.2-0.2 0.5-0.4 0.7-0.4zm-30.8 14.8c0.3 0 0.8 0 1 0.2 0.3 0.1 0.6 0.6 0.8 1 0.4 0.8 0.4 0.8-0.1 1.2-0.3 0.2-0.9 0.3-1.3 0.3-0.6 0-0.9-0.2-1.1-0.5-0.1-0.3-0.2-0.8-0.3-1.2 0-0.4 0.1-0.8 0.2-0.9 0.1-0.1 0.5-0.1 0.8-0.1zm12.1 0c0.3 0 0.8 0.2 1.1 0.4 0.2 0.2 0.4 0.7 0.4 0.9 0 0.3-0.2 0.7-0.5 1-0.2 0.2-0.7 0.4-1 0.4-0.4 0-0.8-0.1-1-0.3-0.1-0.2-0.3-0.7-0.3-1.1 0-0.4 0.1-0.9 0.3-1 0.2-0.2 0.6-0.3 1-0.3zm40.1 0h2.5v4.4c0 2.4 0.1 5.4 0.4 8.8h-2.9zm-75 0.2l0.3 1.5c0.2 0.8 0.6 2.6 1 4.1 0.4 1.5 0.8 2.7 0.9 2.7 0.1 0 0.2-0.5 0.3-1.2 0.1-0.6 0.4-2.1 0.8-3.3 0.3-1.2 0.6-2.4 0.7-2.8 0.1-0.7 0.2-0.7 2.8-0.7l0.8 2.7c0.4 1.5 0.8 3.2 0.9 3.8 0.1 0.6 0.3 1.3 0.4 1.4 0 0.2 0.6-1.5 2.4-7.9h1.4c0.8 0 1.4 0.1 1.4 0.1 0 0.1-0.1 0.5-0.3 1-0.2 0.4-0.8 1.9-1.3 3.3-0.5 1.4-1.1 3.1-1.4 3.9-0.3 0.7-0.6 2-1 4.2h-2.2l-0.6-1.9c-0.3-1.1-0.9-3.1-1.7-7l-0.4 1c-0.2 0.6-0.7 2.5-1.1 4.3-0.4 1.8-0.8 3.3-0.8 3.5-0.1 0.1-0.6 0.2-2.5 0l-0.7-2.3c-0.4-1.2-1.1-3.8-1.7-5.7-0.6-1.9-1.1-3.8-1.2-4.1-0.1-0.5-0.1-0.5 2.8-0.6zm-26.6 0.3h3.3c3.1 0 3.4 0 4.2 0.6 0.6 0.4 1.2 1 1.4 1.4 0.2 0.4 0.3 1.1 0.3 1.6 0 0.6-0.2 1.1-1.3 2.3l0.9 1.1c0.9 1 1 1.2 0.8 1.9 0 0.4-0.4 1.2-0.8 1.7-0.4 0.6-1 1.2-1.4 1.4-0.6 0.4-1.6 0.5-7.4 0.9zm17.4 0l-0.1 4.8c-0.1 3.9-0.2 5-0.6 5.8-0.2 0.6-0.8 1.3-1.2 1.8-0.7 0.6-0.9 0.7-2.8 0.7-1.2 0.1-1.9 0-1.7 0 0.4-0.1 0.4-0.2-0.1-1.2-0.4-0.6-0.7-1.3-0.7-1.6 0-0.3 0.2-0.7 0.4-0.9 0.2-0.3 0.6-0.4 0.9-0.4 0.3 0 0.8 0.3 1.2 0.7 0.6 0.6 0.9 0.7 1.3 0.5 0.3-0.1 0.6-0.4 0.7-0.7 0.2-0.3 0.3-1.7 0.3-3.1 0-1.4-0.1-3.1-0.2-3.9-0.2-1.1-0.3-1.3-0.8-1.3-0.3 0-0.6-0.1-0.6-0.3-0.1-0.3-0.2-0.5-0.2-0.7 0-0.1 0.9-0.2 4.2-0.2zm73.6 0h2.8c2.2 0 3 0.1 3.8 0.4 0.6 0.3 1.3 0.8 1.7 1.3 0.4 0.5 0.7 1.2 0.8 1.8 0.1 0.6 0.1 1.4 0 1.8 0 0.4-0.4 1-0.7 1.4-0.3 0.3-1.1 0.9-1.7 1.1-0.7 0.3-1.7 0.5-4.3 0.5l0.3 4.4-2.7-0.1zm-35.7 1.5c0.7 0 0.7 0.1 0.7 2.5l2-0.4v2l-2.3-0.1v1.3c0 0.7 0.1 1.9 0.4 3.7l2.4-0.4v0.8c0 0.5-0.2 1.1-0.5 1.4-0.4 0.3-0.8 0.5-1.6 0.5-1 0-1.3-0.2-1.9-0.9-0.4-0.5-0.8-1.3-0.9-1.8-0.1-0.6-0.1-1.8 0-2.8 0.1-1.8 0.1-1.8-0.4-1.7-0.5 0.2-0.6 0.1-0.8-0.4-0.1-0.3-0.2-0.8-0.2-1q0-0.5 0.7-0.4c0.5 0 0.6-0.2 0.8-0.9 0-0.5 0.3-1 0.5-1.1 0.2-0.2 0.7-0.3 1.1-0.3zm54.3 1.8c0.1 0 0.7 0.1 1.2 0.2 0.6 0.2 1.4 0.5 1.7 0.8 0.4 0.2 0.8 0.7 1 1 0.1 0.3 0.2 2.1 0.4 7.3l-1.1 0.1c-0.9 0-1.1 0-1.1-0.4 0-0.3 0-0.5-0.1-0.5-0.1 0-0.5 0.2-1.1 0.6-0.7 0.5-1.1 0.6-1.9 0.5-0.7-0.1-1.2-0.4-1.8-1.1-0.8-0.8-0.9-1-0.7-1.9 0.1-0.6 0.3-1.2 0.4-1.4 0.2-0.2 0.8-0.5 1.4-0.8 0.5-0.3 1.6-0.6 2.3-0.7 0.7-0.1 1.3-0.2 1.3-0.3 0-0.1-0.3-0.5-0.6-0.8-0.4-0.4-0.9-0.7-1.1-0.7-0.2 0-0.9 0.2-1.4 0.4-0.5 0.2-1.1 0.4-1.3 0.4-0.2 0-0.4-0.2-0.4-0.6 0-0.3 0.3-0.8 0.6-1.1 0.3-0.3 0.9-0.6 1.3-0.8 0.4-0.1 0.9-0.2 1-0.2zm-63.4 0.2c0.8 0 0.8 0 0.8 1.1 0 0.8-0.1 1.2-0.4 1.3-0.2 0-0.7 0.1-1.1 0.1-0.4 0-0.9 0.2-1.1 0.4-0.2 0.2-0.5 0.8-0.6 1.3-0.1 0.5-0.1 1.5 0 2.2 0.1 0.7 0.2 1.6 0.5 2.7l-3.1 0.2 0.1-3.9c0-2.2-0.1-4.1-0.6-5.1h1.5c1.3 0.1 1.4 0.1 1.3 0.6 0 0.3 0.1 0.6 0.2 0.6 0.1 0 0.5-0.4 1-0.8 0.5-0.4 1.1-0.7 1.5-0.7zm2.2 0.1h2.6v9h-2.6l0.2-3c0.1-1.6 0.1-3.6 0-4.5zm21.8-0.1c0.7 0 1.1 0.2 2.8 2v7h-2.5l0.1-2.7c0.2-2.3 0.2-2.8-0.2-3.4-0.3-0.5-0.6-0.6-1.3-0.6-0.6 0-1 0.1-1.3 0.5-0.2 0.4-0.3 1.3-0.3 6.2h-2.7l0.3-1.4c0.1-0.8 0.1-2.8-0.1-7.3l1.2-0.1c0.6 0 1.2 0.1 1.3 0.2 0.1 0.1 0.1 0.5-0.1 0.7-0.2 0.5-0.2 0.5 0.4 0 0.3-0.3 0.8-0.7 1-0.8 0.3-0.2 0.9-0.3 1.4-0.3zm8.8 0.1c0.8 0.1 1.3 0.3 2.2 1.4l0.1-0.6c0.2-0.6 0.3-0.6 2.3-0.6l-0.1 4.1c0 2.3-0.1 4.6-0.2 5 0 0.5-0.5 1.3-1 1.9-0.5 0.5-1.3 1.1-1.8 1.2-0.5 0.2-1.6 0.3-2.4 0.2-1.1 0-1.8-0.2-2.5-0.7-0.5-0.3-0.9-0.8-1-0.9-0.1-0.2 0.2-0.7 0.5-1.1 0.3-0.4 0.8-0.7 0.9-0.8 0.2 0 0.7 0.4 1.1 0.8 0.5 0.5 1 0.8 1.4 0.8 0.4 0 1-0.2 1.4-0.4 0.4-0.2 0.8-0.5 0.9-0.7 0.1-0.3 0.2-0.8 0.2-2.1l-0.7 0.7c-0.5 0.4-0.9 0.6-1.7 0.5-0.5 0-1.3-0.2-1.8-0.4-0.4-0.2-1-0.8-1.4-1.3-0.6-0.9-0.7-1.1-0.6-2.8 0-1.6 0.1-1.9 0.8-2.6 0.4-0.4 1.1-1 1.5-1.2 0.6-0.4 1-0.5 1.9-0.4zm40.8-0.1c0.5 0 1.3 0.2 1.8 0.4 0.5 0.2 1.2 0.6 2.1 1.6l-0.5 0.6c-0.3 0.4-0.8 0.7-1 0.8-0.3 0.1-0.8-0.2-1.2-0.6-0.4-0.5-1-0.8-1.2-0.8-0.2 0-0.8 0.4-1.2 0.9-0.7 0.6-0.9 1.1-0.9 1.7 0 0.7 0.2 1.1 0.9 1.8 0.5 0.5 1.1 0.9 1.4 0.9 0.3 0 1-0.3 1.4-0.5 0.8-0.5 0.9-0.5 1.4-0.2 0.4 0.2 0.7 0.5 0.7 0.7 0 0.2-0.4 0.6-0.8 0.9-0.5 0.3-1.3 0.6-1.9 0.8-0.5 0.2-1.4 0.2-2 0.2q-1-0.2-1.8-1c-0.4-0.5-1-1.2-1.3-1.8-0.3-0.5-0.5-1.3-0.5-1.8 0-0.6 0.3-1.4 0.7-2.1 0.4-0.6 1.1-1.4 1.5-1.6 0.4-0.3 0.9-0.6 1.1-0.7 0.2-0.1 0.8-0.2 1.3-0.2zm9.1 0c0.5 0 1.1 0.1 1.5 0.3 0.4 0.1 1 0.5 1.3 0.8 0.3 0.3 0.8 0.9 1 1.5 0.3 0.5 0.5 1.3 0.4 2.8l-3.1-0.1c-2.7 0-3 0-3 0.4 0 0.2 0.2 0.6 0.4 0.9 0.2 0.2 0.9 0.5 1.4 0.6 0.8 0.1 1.2 0 1.8-0.3 0.8-0.5 0.9-0.5 2.1 0.4l-0.5 0.6c-0.3 0.4-1 0.8-1.4 1-0.5 0.2-1.5 0.3-2.3 0.3-1.3 0-1.5 0-3.8-2.3v-2c0-1.8 0.1-2.1 0.7-2.9 0.3-0.5 1.1-1.2 1.6-1.5 0.6-0.3 1.5-0.5 1.9-0.5zm-68.7 0.3l2.6-0.1-0.1 0.9c-0.1 0.4-0.2 2.4-0.2 8.2h-2.3zm37.7 18.6c0.4 0.2 0.5 0.5 0.4 2.1 0 1-0.1 2.6-0.1 3.4 0 1.4 0 1.6-0.5 1.6-0.4 0-0.5-0.2-0.6-1.1-0.1-0.5-0.2-2.1-0.2-3.3-0.2-2-0.1-2.4 0.2-2.6 0.2-0.1 0.6-0.1 0.8-0.1zm14-0.2c0.3 0 0.6 0.2 0.7 0.4 0.2 0.2 0.3 0.6 0.2 0.9-0.1 0.3-0.3 0.5-0.7 0.5-0.4 0-0.7-0.2-0.8-0.4 0-0.3 0-0.7 0.1-0.9 0-0.3 0.3-0.5 0.5-0.5zm-88.2 0.4h0.6c0.3 0 0.6 0.1 0.7 0.3 0.1 0.1 0.2 0.6 0.2 1 0 0.8 0.1 0.9 0.8 0.8 0.5 0 1 0.2 1.2 0.5 0.3 0.3 0.4 0.9 0.4 2.3 0 1.6-0.1 1.9-0.4 1.9-0.4 0.1-0.5-0.1-0.5-1.3 0-0.9-0.1-1.7-0.3-1.9-0.3-0.4-0.4-0.4-0.9-0.1q-0.7 0.3-0.7 1c-0.1 0.4-0.1 1.1-0.2 1.6-0.1 0.4-0.3 0.8-0.4 0.8-0.3 0-0.4-0.9-0.4-3.4zm34.2-0.2c0.2 0 0.6 0.1 0.8 0.2 0.2 0.2 0.3 0.8 0.1 2.6 0 1.3-0.1 2.7-0.1 3.2 0 0.8 0 0.8-1.2 0.9-0.6 0-1.4-0.1-1.7-0.2-0.3-0.2-0.6-0.7-0.8-1.1-0.2-0.4-0.3-1-0.2-1.3 0.1-0.4 0.4-1 0.7-1.4 0.4-0.5 0.8-0.7 1.5-0.7 0.7 0 1-0.1 1-0.5 0-0.2-0.1-0.7-0.3-1-0.2-0.6-0.2-0.7 0.2-0.7zm2.7 0c0.1 0 0.3 0.1 0.5 0.2 0.3 0.1 0.4 0.4 0.4 0.6 0 0.4-0.3 0.5-0.8 0.5-0.4 0-0.8-0.2-0.8-0.3 0-0.2 0.1-0.5 0.3-0.7 0.2-0.1 0.4-0.3 0.4-0.3zm34.7 0c0.4 0 0.7 0.2 0.8 0.5 0.1 0.2 0.1 0.6 0 0.9-0.1 0.2-0.4 0.4-0.8 0.4-0.4 0-0.6 0.1-0.5 0.3 0 0.2 0.4 0.3 0.7 0.4 0.5 0 0.7 0.2 0.6 0.5 0 0.3-0.2 0.4-1.4 0.3v1.9c0 1.3-0.1 1.8-0.3 1.8-0.2 0-0.4-0.5-0.5-1.5-0.1-0.9-0.2-2.1-0.2-2.8-0.1-0.9 0.1-1.4 0.5-1.9 0.3-0.5 0.8-0.8 1.1-0.8zm-85.1 0.7h2.3c2.1 0 2.3 0 2.5 0.5 0.1 0.3 0.1 0.6 0.1 0.6-0.1 0-0.3 0-0.4 0.1-0.1 0.1-0.5 0.1-0.9 0.1-0.6 0-0.6 0-0.6 2.4 0 2.1-0.1 2.4-0.4 2.5-0.3 0.1-0.6 0-0.7-0.2-0.1-0.1-0.1-1.3-0.2-4.9l-0.8 0.1c-0.7 0-0.8-0.1-0.8-0.6zm32.9 0c0.2 0.1 0.5 0.1 0.8 0.1 0.3 0 0.8 0.3 1.1 0.6 0.4 0.4 0.5 0.7 0.3 1.4-0.1 0.5-0.4 1.1-1.3 2l0.9 0.9c0.7 0.8 0.8 1 0.4 1.1-0.2 0-0.5-0.1-0.7-0.2-0.2-0.1-0.5-0.6-0.7-1-0.2-0.6-0.5-0.8-0.9-0.8-0.5 0-0.6 0.1-0.6 1 0 0.9 0 1-1.2 1v-6l0.8-0.1c0.4 0 0.9 0 1.1 0zm40.9-0.2l1.6 0.1c1.4 0.1 1.7 0.2 2.1 0.7 0.3 0.4 0.5 0.9 0.5 1.3 0 0.3-0.3 0.9-0.7 1.2-0.3 0.4-0.6 0.7-0.6 0.8 0 0 0.4 0.5 1 1q0.9 1 0.6 1.2c-0.1 0.2-0.4 0.2-0.7 0.2-0.3-0.1-0.8-0.6-1.2-1.2-0.4-0.6-0.9-1-1.2-1-0.4 0-0.5 0.2-0.4 1 0 1 0 1-1.5 1l0.2-1.7c0.1-0.9 0.2-2.3 0.3-3.1zm24.9 0.5c0.1 0 0.4 0.4 0.6 0.8 0.4 0.7 0.5 0.7 1.8 0.7 1.2 0 1.3 0.1 1.3 0.6 0 0.3 0 1.3-0.2 2.2-0.1 1.4-0.2 1.7-0.6 1.7-0.4 0-0.4-0.2-0.4-2.1 0-1.9-0.1-2.1-0.4-2.1-0.3 0-0.7 0.2-0.9 0.4-0.3 0.3-0.5 0.8-0.5 1.4 0 0.7 0.1 0.9 0.4 0.9q0.4 0 0.3 0.7 0 0.7-0.5 0.8c-0.3 0-0.7-0.1-1-0.3-0.3-0.3-0.4-0.8-0.4-1.8 0-1.1-0.1-1.4-0.5-1.6-0.5-0.2-0.5-0.3-0.1-0.7 0.2-0.2 0.3-0.6 0.3-0.7 0-0.2 0.1-0.4 0.3-0.6 0.2-0.1 0.4-0.3 0.5-0.3zm-60.4 1.3c0.3 0 0.7 0.5 0.9 0.9 0.3 0.5 0.6 0.8 0.7 0.8 0.2 0 0.3 0.2 0.3 0.4 0 0.2-0.2 0.4-0.4 0.5-0.2 0.1-0.9 0.1-1.6 0.1-0.9 0-1.2 0.1-1.2 0.3 0.1 0.2 0.7 0.4 2.8 0.6l-0.9 0.6c-0.4 0.3-0.9 0.5-1 0.5-0.1 0-0.5-0.1-0.8-0.2-0.4-0.2-0.8-0.6-1-1-0.2-0.4-0.4-0.9-0.4-1.1 0-0.3 0.2-0.8 0.4-1.3 0.3-0.5 0.7-1 1.1-1.1 0.3-0.1 0.8-0.1 1.1 0zm42.6-0.1c0.2 0.1 0.7 0.4 1.1 0.8 0.4 0.4 0.7 0.9 0.7 1.1 0 0.2-0.2 0.5-0.5 0.7-0.3 0.1-1 0.2-1.6 0.2-0.9 0-1 0-0.7 0.4 0.3 0.2 0.8 0.4 1.4 0.4 0.5 0 0.9 0.1 0.9 0.2 0 0.1-0.1 0.3-0.3 0.4-0.2 0.2-0.6 0.4-0.9 0.5-0.4 0.1-0.8-0.1-1.4-0.7-0.7-0.7-0.9-1.2-0.9-1.8-0.1-0.6 0.1-0.9 0.8-1.6 0.6-0.4 1.1-0.7 1.4-0.6zm33.9-0.2c0.4 0 0.8 0.2 1 0.4 0.2 0.2 0.3 0.5 0.3 0.6-0.1 0.2-0.5 0.2-0.9 0.2-0.4-0.1-0.8-0.1-0.9 0.1-0.1 0.1 0.3 0.5 0.9 0.7 0.5 0.3 1.1 0.7 1.1 1 0.1 0.2 0.1 0.7-0.1 1-0.1 0.3-0.5 0.7-0.9 0.8-0.5 0.3-0.8 0.3-1.5-0.1-0.5-0.2-0.9-0.6-0.9-0.8 0-0.2 0.2-0.3 0.4-0.3 0.1 0.1 0.5 0.2 0.8 0.3 0.2 0.1 0.6 0 0.8-0.1 0.2-0.1 0.4-0.3 0.3-0.3-0.1-0.1-0.6-0.3-1.1-0.6q-1-0.5-1.1-1.1c0-0.3 0.2-0.8 0.6-1.1 0.3-0.4 0.9-0.7 1.2-0.7zm-108.1 0.3c0.5 0 0.9 0.2 1.2 0.7 0.3 0.3 0.6 0.9 0.5 1.2 0 0.3-0.1 0.6-0.3 0.7-0.2 0.1-0.9 0.1-1.4 0.1-0.6 0-1 0.1-1 0.3 0 0.1 0.2 0.3 0.4 0.4 0.2 0 0.7 0.1 1.1 0.1 0.4 0 0.7 0.1 0.7 0.2 0 0.2-0.2 0.5-0.5 0.8-0.2 0.3-0.6 0.5-0.7 0.5-0.1 0-0.7-0.4-1.1-0.9-0.7-0.6-0.9-1.1-0.9-1.7-0.1-0.6 0.1-1.1 0.6-1.7 0.5-0.5 0.9-0.7 1.4-0.7zm4.5 0q0.7 0 1 0.5c0.1 0.3 0.2 0.5 0.2 0.6 0 0.1-0.2 0.1-0.5 0-0.2-0.1-0.8 0-1.2 0.3-0.6 0.3-0.8 0.5-0.6 2l1.3-0.1c0.9-0.1 1.3 0 1.3 0.2 0 0.2-0.2 0.6-0.5 0.8-0.2 0.2-0.6 0.4-0.9 0.4-0.4 0-0.9-0.3-1.2-0.7-0.4-0.3-0.7-0.8-0.7-1.1 0-0.2-0.1-0.5-0.2-0.5-0.1-0.1-0.3-0.3-0.3-0.6 0-0.2 0.4-0.7 0.8-1.1 0.5-0.4 1.1-0.7 1.5-0.7zm30.9 0c1 0 1.1 0.1 1.5 0.7 0.2 0.4 0.3 1.4 0.3 2.3 0 0.8-0.1 1.6-0.2 1.7-0.2 0.1-0.4 0-0.5-0.2-0.1-0.2-0.3-0.3-0.7 0-0.3 0.1-0.8 0.2-1.1 0.2-0.2 0-0.6-0.2-0.8-0.5-0.2-0.3-0.4-0.8-0.4-1.1 0-0.3 0.3-0.6 0.7-0.8 0.4-0.1 0.9-0.3 1.2-0.4 0.3-0.1 0.6-0.3 0.6-0.5 0-0.3-0.3-0.4-1-0.4-0.6 0-1-0.1-1-0.1 0-0.1 0.1-0.3 0.1-0.5q0.2-0.4 1.3-0.4zm11.7 0c0.7 0 1.2 0.1 1.5 0.5 0.4 0.4 0.5 0.9 0.5 2.2 0 1.3-0.1 1.7-0.4 1.7-0.2 0-0.4-0.4-0.5-1.5 0-0.9-0.2-1.5-0.5-1.7-0.2-0.1-0.5-0.2-0.7-0.2-0.3 0.1-0.4 0.5-0.4 1.7-0.1 1.5-0.1 1.5-1.4 1.5l0.2-1.9c0.1-1.1 0.3-2 0.4-2.1 0.2-0.1 0.8-0.2 1.3-0.2zm4.7 0c0.3 0 0.7 0.1 0.9 0.3 0.3 0.4 0.3 0.4 0.7 0.1 0.2-0.3 0.5-0.4 0.7-0.4 0.2 0 0.3 0.1 0.3 0.3-0.1 0.2-0.2 1.3-0.2 2.5-0.1 1.9-0.2 2.2-0.7 2.8-0.4 0.3-0.9 0.7-1.3 0.7-0.3 0.1-0.9 0.1-1.3 0-0.5 0-0.7-0.2-0.7-0.7 0-0.6 0.1-0.6 1-0.5 0.7 0.1 1 0.1 1.3-0.3 0.2-0.2 0.5-0.7 0.6-0.9 0.2-0.5 0.2-0.5-0.3-0.1-0.2 0.2-0.7 0.4-1 0.4-0.3 0-0.8-0.3-1.2-0.6-0.3-0.3-0.6-0.8-0.6-1.1 0-0.3 0.1-0.8 0.3-1.1 0.1-0.3 0.4-0.7 0.6-1 0.2-0.2 0.6-0.4 0.9-0.4zm32.2 0c0.3 0 0.9 0.3 1.3 0.7 0.4 0.4 0.7 0.9 0.6 1.2 0 0.4-0.3 0.5-1.4 0.7-1.3 0.2-1.4 0.2-0.9 0.5 0.3 0.2 0.9 0.4 1.3 0.4 0.5 0 0.8 0.1 0.8 0.2 0 0.2-0.2 0.5-0.5 0.8-0.3 0.3-0.6 0.5-0.7 0.5-0.1 0-0.5-0.2-0.9-0.5-0.4-0.2-0.9-0.8-1.2-1.3-0.3-0.8-0.4-1.1-0.1-1.7 0.1-0.3 0.4-0.8 0.6-1.1 0.2-0.2 0.7-0.4 1.1-0.4zm4.8 0c0.5 0 1 0.1 1.1 0.3 0.2 0.2 0.3 0.4 0.3 0.5 0 0.1-0.3 0.2-0.7 0.2-0.4 0-1 0.1-1.3 0.2-0.3 0.2-0.5 0.5-0.5 2.2l1.3-0.2c1-0.1 1.2 0 1.2 0.3 0 0.2-0.2 0.6-0.4 0.8-0.2 0.2-0.7 0.4-0.9 0.4-0.3 0-0.7-0.2-0.9-0.4-0.3-0.2-0.6-0.8-0.9-1.3-0.2-0.4-0.4-0.9-0.4-1.1 0-0.2 0.3-0.7 0.7-1.2 0.4-0.5 0.9-0.7 1.4-0.7zm9.8 0c0.2 0 0.7 0.1 1.1 0.3 0.4 0.2 0.8 0.7 1 1.1 0.3 0.6 0.3 0.8 0 1.6-0.2 0.4-0.6 1-1 1.3-0.4 0.2-1 0.4-1.3 0.4-0.3-0.1-0.8-0.5-1.1-1-0.3-0.5-0.6-1.2-0.6-1.7 0-0.5 0.1-1 0.2-1.1 0.1-0.2 0.5-0.4 0.7-0.6 0.3-0.2 0.7-0.3 1-0.3zm3.1 0.1l1.5-0.1c1 0 1.5 0.1 1.9 0.4 0.3 0.4 0.4 0.8 0.4 2.3 0 1.6-0.1 1.8-0.5 1.8-0.4 0-0.5-0.2-0.5-1.3 0-0.8-0.2-1.5-0.4-1.8-0.4-0.5-0.4-0.5-0.9 0.1-0.3 0.3-0.6 1.1-0.7 1.8-0.1 0.7-0.2 1.1-0.4 1.1-0.1 0-0.3-0.5-0.4-0.9-0.1-0.5-0.1-1.5-0.1-2.2zm-83.5 0.2c0.2 0 0.5 0.2 0.7 0.4 0.2 0.2 0.3 0.5 0.3 0.8 0.1 0.2-0.3 0.8-0.6 1.4-0.7 0.8-0.8 0.9-1.2 0.5-0.3-0.4-0.4-0.7-0.3-1.2 0.1-0.4 0.3-1 0.5-1.3 0.2-0.3 0.5-0.6 0.6-0.6zm25.3 0c0.4 0 0.5 0.2 0.5 1.9 0 1 0 1.9 0 2 0.1 0.1-0.1 0.3-0.5 0.3-0.5 0-0.5 0-0.5-2.1 0-1.9 0-2.1 0.5-2.1zm16.9 0c0.3 0 0.6 0.1 0.8 0.3 0.2 0.2 0.3 0.6 0.3 0.9 0 0.4-0.2 1-1 1.9l-0.6-0.6c-0.4-0.3-0.7-0.8-0.7-0.9-0.1-0.2 0.1-0.6 0.4-1 0.2-0.3 0.6-0.6 0.8-0.6zm-48 3c0.5 0 0.5 0.1 0.5 0.9 0 0.5-0.2 1-0.4 1-0.1 0.1-0.4-0.2-0.6-0.5-0.2-0.3-0.4-0.7-0.3-1 0.1-0.2 0.4-0.4 0.8-0.4zm24.7 18.2c0.2 0 0.7 0.2 1 0.4 0.4 0.2 0.6 0.6 0.6 0.9 0 0.3 0 0.5 0 0.5-0.1 0-0.4-0.2-0.8-0.4-0.5-0.2-0.9-0.5-1-0.7-0.1-0.1-0.2-0.4-0.2-0.5 0-0.1 0.2-0.2 0.4-0.2z"/><path class="b" d="m86.8 19.1c-0.2 0.3-0.8 1.1-1.3 1.7-0.4 0.7-0.9 1.2-1.1 1.2-0.2 0-0.2-0.2-0.1-0.9 0.1-0.6 0.3-1.3 0.4-1.7l0.2-0.7c-1.6 0.8-1.9 1.1-1.9 1.4 0 0.3 0.2 1.1 0.4 1.8l0.4 1.3c2.7-0.1 2.9-0.2 3.6-1 0.7-0.7 0.9-1.2 0.9-2 0-0.5-0.2-1.1-0.4-1.3-0.2-0.2-0.4-0.4-0.5-0.4 0 0-0.3 0.3-0.6 0.6zm-19 22c-0.1 0.3-0.5 0.9-0.9 1.4-0.5 0.5-1.2 1.4-1.6 2-0.3 0.6-0.8 1.2-0.9 1.4-0.2 0.2-0.1 0.6 0.5 1.2 0.4 0.4 1.3 1.6 1.9 2.6 0.7 1 1.2 1.9 1.2 2 0 0.1 0.2 0.5 0.4 0.8 0.3 0.5 0.5 0.6 0.6 0.2 0.1-0.2 0.2-0.6 0.1-0.8-0.2-0.4-0.1-0.5 0.2-0.3q0.3 0.3 0.1 0c-0.1-0.2 0-0.6 0.1-0.9 0.1-0.2 0.3-0.4 0.4-0.4 0.1 0.1 0.2 0 0.2-0.3 0-0.2 0.2-0.4 0.3-0.4 0.2 0 0.5-0.3 0.8-0.6 0.2-0.3 0.8-1.1 1.4-1.7 0.6-0.5 0.9-1 0.8-1.1-0.2-0.1-0.8-0.9-1.4-1.9-0.7-0.9-1.7-2.2-2.3-2.7-0.7-0.6-1.3-1.1-1.4-1.1-0.2 0-0.4 0.3-0.5 0.6zm0.4 23.1c-0.2 0.2-1.2 1.6-2.2 3l-1.7 2.7c1.7 1.9 2.6 3.1 3.1 3.9 0.5 0.8 1 1.4 1.1 1.4 0.1 0 0.3-0.3 0.6-0.7 0.3-0.4 1.3-1.5 2.2-2.5 1-1 1.7-2 1.7-2.2-0.1-0.2-1-1.6-2-3.2-1.1-1.6-2-2.9-2.2-2.9-0.1 0-0.4 0.2-0.6 0.5zm-64.9 28.6l0.1 1.6c2.6 0 3.2-0.2 3.5-0.4 0.2-0.2 0.4-0.7 0.4-1.1 0-0.4-0.2-0.9-0.4-1.2-0.3-0.2-1.1-0.4-2-0.4l-1.6-0.1zm90.8 0.3c-0.1 0.9-0.1 1.8 0 2 0.1 0.3 0.4 0.4 1.5 0.3 0.8-0.1 1.7-0.2 1.9-0.3 0.3-0.1 0.6-0.6 0.7-1 0.2-0.6 0.2-1 0-1.3-0.1-0.3-0.5-0.7-0.8-0.9-0.3-0.2-1.1-0.4-1.8-0.4h-1.3zm33.9 2.1c-0.2 0.2-0.4 0.7-0.4 0.9 0.1 0.5 0.2 0.5 1.9 0.4 1.3 0 1.9-0.1 1.9-0.3 0-0.2-0.2-0.6-0.5-0.9-0.3-0.4-0.8-0.6-1.4-0.6-0.6 0-1.2 0.2-1.5 0.5zm-49.8 0.3c-0.5 0.4-0.6 0.7-0.6 1.5 0.1 0.7 0.3 1.2 0.8 1.7 0.4 0.4 1 0.8 1.2 0.8 0.2 0 0.8-0.3 1.3-0.6 0.7-0.4 0.9-0.7 1-1.4 0-0.6-0.2-1.2-0.5-1.7-0.4-0.7-0.6-0.8-1.6-0.8q-1 0-1.6 0.5zm-75 2.4v1.5c1.7 0.2 2.6 0.2 3 0.1 0.4-0.1 0.9-0.3 1-0.6 0.1-0.2 0.2-0.7 0.2-1 0-0.3-0.2-0.7-0.4-1-0.3-0.3-0.9-0.4-2.1-0.4h-1.7zm106.2 0.4c-0.3 0.2-0.5 0.6-0.5 0.8 0 0.2 0.2 0.5 0.3 0.7 0.2 0.2 0.6 0.3 1.1 0.2 0.4-0.1 1-0.3 1.3-0.5 0.4-0.3 0.6-0.6 0.5-0.9 0-0.4-0.3-0.5-1.1-0.6-0.6 0-1.2 0.1-1.6 0.3zm-66.2 16c0 0.6 0.1 0.9 0.3 0.9 0.2 0 0.5-0.1 0.9-0.1 0.3-0.1 0.5-0.3 0.5-0.5 0-0.1-0.2-0.5-0.4-0.7-0.3-0.2-0.7-0.4-0.9-0.4-0.3-0.1-0.4 0.2-0.4 0.8zm42.7-0.7c-0.2 0.1-0.3 0.4-0.3 0.9 0.1 0.6 0.2 0.7 0.8 0.7 0.4 0 0.9-0.1 1.1-0.1 0.2-0.1 0.4-0.4 0.4-0.6 0-0.2-0.1-0.6-0.3-0.7-0.2-0.2-0.5-0.4-0.8-0.3-0.3 0-0.7 0-0.9 0.1zm-28.5 1.3c-0.2 0-0.3 0.4-0.3 0.9 0 0.4 0.2 0.9 0.4 1.1 0.2 0.2 0.4 0.2 0.6 0 0.2-0.2 0.4-0.6 0.4-1 0-0.4-0.1-0.8-0.4-0.9-0.2-0.1-0.5-0.2-0.7-0.1zm58.4 0.6c-0.4 0.4-0.7 1-0.7 1.3 0.1 0.5 0.2 0.6 0.6 0.6 0.3 0 0.8-0.1 1.2-0.3 0.3-0.2 0.5-0.7 0.5-1 0-0.3-0.2-0.7-0.4-1-0.5-0.4-0.5-0.4-1.2 0.4zm-46.9-0.1c-0.2 0.3-0.3 0.7-0.3 0.9 0.1 0.2 0.3 0.5 0.5 0.6 0.2 0 0.7 0 1 0q0.6-0.2 0.6-0.8c0-0.3-0.2-0.7-0.5-0.8-0.2-0.2-0.5-0.3-0.7-0.3-0.2-0.1-0.4 0.2-0.6 0.4zm32.3-0.2c-0.2 0.2-0.4 0.4-0.3 0.5 0 0.2 0.5 0.2 1.1 0.2 0.7-0.1 1-0.2 1-0.5 0-0.2-0.2-0.4-0.7-0.4-0.4 0-0.9 0.1-1.1 0.2zm-83.5 0.7c-0.3 0-0.5-0.2-0.5-0.3 0-0.2 0.2-0.4 0.5-0.4 0.3 0 0.6 0.2 0.6 0.4 0 0.1-0.3 0.3-0.6 0.3zm30.5-0.5c-0.2 0-0.4 0.2-0.3 0.3 0 0.1 0.5 0.2 1.1 0.2 0.8 0 1.1-0.1 1.1-0.3-0.1-0.1-0.4-0.3-0.8-0.3-0.4-0.1-0.9 0-1.1 0.1zm42.7 0.2c0 0.2 0.3 0.3 1 0.3 0.9 0 1 0 0.7-0.3-0.2-0.3-0.6-0.4-1-0.4-0.4 0-0.7 0.1-0.7 0.4zm-38.3 1.3c-0.1 0.2-0.1 0.4-0.1 0.5 0.1 0.2 0.4 0.3 0.7 0.3q0.5 0 0.5-0.5 0-0.5-0.5-0.5c-0.3 0-0.6 0.1-0.6 0.2z"/><path class="a" d="m68.1 45.2c-0.2 0.1-0.4 0.4-0.6 0.7-0.1 0.3-0.2 0.9-0.2 1.2 0 0.4 0.2 0.8 0.6 1 0.3 0.2 0.8 0.4 1.1 0.4 0.2 0 0.6-0.2 0.9-0.4 0.2-0.2 0.4-0.7 0.4-1.1 0-0.5-0.3-1-0.7-1.4-0.3-0.3-0.7-0.6-0.9-0.6-0.2 0-0.4 0.1-0.6 0.2zm-0.3 22.1c-0.1 0.2-0.3 0.6-0.4 1-0.1 0.5 0 0.9 0.5 1.3 0.3 0.4 0.8 0.6 1 0.6 0.2 0 0.6-0.2 0.9-0.5 0.2-0.2 0.5-0.7 0.5-1.1 0-0.4-0.3-0.8-0.7-1.1-0.4-0.3-0.9-0.5-1.1-0.5-0.3 0-0.6 0.1-0.7 0.3z"/></svg>